<?xml version="1.0" encoding="UTF-8"?>
<!DOCTYPE svg PUBLIC "-//W3C//DTD SVG 1.1//EN" "http://www.w3.org/Graphics/SVG/1.1/DTD/svg11.dtd">
<!-- Creator: CorelDRAW -->
<svg xmlns="http://www.w3.org/2000/svg" xml:space="preserve" width="2.66666in" height="2.66666in" style="shape-rendering:geometricPrecision; text-rendering:geometricPrecision; image-rendering:optimizeQuality; fill-rule:evenodd; clip-rule:evenodd"
viewBox="0 0 2.66666 2.66666"
 xmlns:xlink="http://www.w3.org/1999/xlink">
 <defs>
  <style type="text/css">
   <![CDATA[
    .fil1 {fill:#FEFEFE}
    .fil0 {fill:url(#id0)}
   ]]>
  </style>
  <linearGradient id="id0" gradientUnits="userSpaceOnUse" x1="0.273043" y1="-0.066248" x2="2.39362" y2="2.73291">
   <stop offset="0" style="stop-color:#FF0066"/>
   <stop offset="1" style="stop-color:#FF9966"/>
  </linearGradient>
 </defs>
 <g id="Layer_x0020_1">
  <metadata id="CorelCorpID_0Corel-Layer"/>
  <circle class="fil0" cx="1.33333" cy="1.33333" r="1.33333"/>
  <path class="fil1" d="M0.956409 1.91796l0 -0.97889c0,-0.0119685 0.00970079,-0.0216654 0.0216693,-0.0216654l0.448169 0c0.0119646,0 0.0216654,0.00969685 0.0216654,0.0216654l0 0.97889 -0.491504 0zm0.336713 -0.647283l-0.181929 0c-0.0119685,0 -0.0216654,-0.00970079 -0.0216654,-0.0216654l0 -0.178209c0,-0.0119685 0.00969685,-0.0216654 0.0216654,-0.0216654l0.181929 0c0.0119646,0 0.0216654,0.00969685 0.0216654,0.0216654l0 0.178209c0,0.0119646 -0.00970079,0.0216654 -0.0216654,0.0216654zm-0.160264 -0.0433307l0.138594 0 0 -0.134878 -0.138594 0 0 0.134878zm0.160264 0.344433l-0.181929 0c-0.0119685,0 -0.0216654,-0.00969685 -0.0216654,-0.0216654l0 -0.178209c0,-0.0119646 0.00969685,-0.0216654 0.0216654,-0.0216654l0.181929 0c0.0119646,0 0.0216654,0.00970079 0.0216654,0.0216654l0 0.178209c0,0.0119685 -0.00970079,0.0216654 -0.0216654,0.0216654zm-0.160264 -0.0433307l0.138594 0 0 -0.134874 -0.138594 0 0 0.134874zm0.160264 0.344441l-0.181929 0c-0.0119685,0 -0.0216654,-0.00970079 -0.0216654,-0.0216654l0 -0.178209c0,-0.0119685 0.00969685,-0.0216654 0.0216654,-0.0216654l0.181929 0c0.0119646,0 0.0216654,0.00969685 0.0216654,0.0216654l0 0.178209c0,0.0119646 -0.00970079,0.0216654 -0.0216654,0.0216654zm-0.160264 -0.0433346l0.138594 0 0 -0.134874 -0.138594 0 0 0.134874z"/>
  <path class="fil1" d="M0.568362 1.91796l0 -0.667358c0,-0.0119646 0.00970079,-0.0216654 0.0216654,-0.0216654l0.323051 0 0 0.689024 -0.344717 0zm0.246839 -0.0398504l-0.145252 0c-0.0119685,0 -0.0216693,-0.00969685 -0.0216693,-0.0216654l0 -0.178209c0,-0.0119685 0.00970079,-0.0216654 0.0216693,-0.0216654l0.145252 -3.93701e-006c0.0119646,0 0.0216654,0.00970079 0.0216654,0.0216654l0 0.178213c0,0.0119646 -0.00970079,0.0216654 -0.0216654,0.0216654zm-0.123587 -0.0433307l0.101921 0 0 -0.134878 -0.101921 0 0 0.134878zm0.123587 -0.25778l-0.145252 0c-0.0119685,0 -0.0216693,-0.00969685 -0.0216693,-0.0216654l0 -0.178209c0,-0.0119685 0.00970079,-0.0216693 0.0216693,-0.0216693l0.145252 0c0.0119646,0 0.0216654,0.00970079 0.0216654,0.0216654l0 0.178213c0,0.0119646 -0.00970079,0.0216654 -0.0216654,0.0216654zm-0.123587 -0.0433307l0.101921 0 0 -0.134882 -0.101921 0 0 0.134882z"/>
  <path class="fil1" d="M1.49124 1.91796l0 -0.689024 0.258047 0 0 0.689024 -0.258047 0zm0.201646 -0.340961l-0.145252 0c-0.0119646,0 -0.0216654,-0.00969685 -0.0216654,-0.0216654l0 -0.178209c0,-0.0119685 0.00970079,-0.0216693 0.0216654,-0.0216693l0.145252 0c0.0119685,0 0.0216693,0.00970079 0.0216693,0.0216654l0 0.178213c0,0.0119646 -0.00970079,0.0216654 -0.0216693,0.0216654zm-0.123583 -0.0433307l0.101917 0 0 -0.134882 -0.101917 0 0 0.134882zm0.123583 0.344441l-0.145252 0c-0.0119646,0 -0.0216654,-0.00969685 -0.0216654,-0.0216654l0 -0.178209c0,-0.0119685 0.00970079,-0.0216654 0.0216654,-0.0216654l0.145252 -3.93701e-006c0.0119685,0 0.0216693,0.00970079 0.0216693,0.0216654l0 0.178213c0,0.0119646 -0.00970079,0.0216654 -0.0216693,0.0216654zm-0.123583 -0.0433307l0.101917 0 0 -0.134878 -0.101917 0 0 0.134878z"/>
  <path class="fil1" d="M1.79262 1.91796l0 -1.14285c0,-0.0119646 0.00970079,-0.0216654 0.0216654,-0.0216654l0.262339 0c0.0119685,0 0.0216654,0.00970079 0.0216654,0.0216654l0 1.14285 -0.305669 0zm0.191406 -0.0643031l-0.0771417 0c-0.0119685,0 -0.0216654,-0.00969685 -0.0216654,-0.0216654l0 -0.206866c0,-0.0119685 0.00969685,-0.0216654 0.0216654,-0.0216654l0.0771417 0c0.0119646,0 0.0216654,0.00969685 0.0216654,0.0216654l0 0.206866c0,0.0119646 -0.00970079,0.0216654 -0.0216654,0.0216654zm-0.0554764 -0.0433307l0.0338071 0 0 -0.163535 -0.0338071 0 0 0.163535zm0.0554764 -0.306193l-0.0771417 0c-0.0119685,0 -0.0216654,-0.00970079 -0.0216654,-0.0216654l0 -0.206866c0,-0.0119646 0.00969685,-0.0216654 0.0216654,-0.0216654l0.0771417 0c0.0119646,0 0.0216654,0.00970079 0.0216654,0.0216654l0 0.206866c0,0.0119646 -0.00970079,0.0216654 -0.0216654,0.0216654zm-0.0554764 -0.0433346l0.0338071 0 0 -0.163531 -0.0338071 0 0 0.163531zm0.0554764 -0.306189l-0.0771417 0c-0.0119685,0 -0.0216654,-0.00970079 -0.0216654,-0.0216654l0 -0.206866c0,-0.0119646 0.00969685,-0.0216654 0.0216654,-0.0216654l0.0771417 0c0.0119646,0 0.0216654,0.00970079 0.0216654,0.0216654l0 0.20687c0,0.0119606 -0.00970079,0.0216614 -0.0216654,0.0216614zm-0.0554764 -0.0433307l0.0338071 0 0 -0.163531 -0.0338071 0 0 0.163531z"/>
  <path class="fil1" d="M2.16497 2.13686l-1.66329 0c-0.0119685,0 -0.0216654,-0.00970079 -0.0216654,-0.0216693l0 -0.0661181c0,-0.0484016 0.039378,-0.0877835 0.0877795,-0.0877835l1.53106 0c0.0484016,0 0.0877835,0.039374 0.0877835,0.0877795l0 0.066122c0,0.0119685 -0.00970079,0.0216693 -0.0216693,0.0216693z"/>
  <path class="fil1" d="M0.839819 1.27226l-0.194488 0c-0.0119646,0 -0.0216654,-0.00969685 -0.0216654,-0.0216654l0 -0.0744094c0,-0.0119685 0.00970079,-0.0216693 0.0216654,-0.0216693l0.194488 3.93701e-006c0.0119685,0 0.0216654,0.00969685 0.0216654,0.0216654l0 0.0744134c0,0.0119646 -0.00970079,0.0216614 -0.0216654,0.0216614z"/>
  <path class="fil1" d="M1.29941 0.960736l-0.194488 0c-0.0119646,0 -0.0216654,-0.00970079 -0.0216654,-0.0216693l0 -0.0744094c0,-0.0119685 0.00970079,-0.0216654 0.0216654,-0.0216654l0.194488 0c0.0119646,0 0.0216654,0.00970079 0.0216654,0.0216654l0 0.0744134c0,0.0119646 -0.00970079,0.0216654 -0.0216654,0.0216654z"/>
  <path class="fil1" d="M1.7175 1.27226l-0.194484 0c-0.0119646,0 -0.0216654,-0.00969685 -0.0216654,-0.0216654l0 -0.0744094c0,-0.0119685 0.00970079,-0.0216693 0.0216654,-0.0216693l0.194484 3.93701e-006c0.0119685,0 0.0216654,0.00969685 0.0216654,0.0216654l0 0.0744134c0,0.0119646 -0.00969685,0.0216614 -0.0216654,0.0216614z"/>
  <path class="fil1" d="M2.0427 0.796772l-0.194484 0c-0.0119646,0 -0.0216654,-0.00970079 -0.0216654,-0.0216693l0 -0.0744094c0,-0.0119685 0.00970079,-0.0216654 0.0216654,-0.0216654l0.194484 0c0.0119685,0 0.0216654,0.00969685 0.0216654,0.0216654l0 0.0744134c0,0.0119646 -0.00970079,0.0216654 -0.0216654,0.0216654z"/>
  <path class="fil1" d="M0.742575 1.19785c-0.0119646,0 -0.0216654,-0.00969685 -0.0216654,-0.0216654l0 -0.14922c0,-0.0119646 0.00970079,-0.0216654 0.0216654,-0.0216654 0.0119685,0 0.0216654,0.00970079 0.0216654,0.0216654l0 0.14922c0,0.0119685 -0.00969685,0.0216654 -0.0216654,0.0216654z"/>
  <path class="fil1" d="M1.20216 0.886319c-0.0119685,0 -0.0216693,-0.00969685 -0.0216693,-0.0216654l0 -0.149224c0,-0.0119685 0.00970079,-0.0216654 0.0216693,-0.0216654 0.0119646,0 0.0216654,0.00969685 0.0216654,0.0216654l0 0.149224c0,0.0119685 -0.00970079,0.0216654 -0.0216654,0.0216654z"/>
  <path class="fil1" d="M1.62026 1.19785c-0.0119685,0 -0.0216654,-0.00969685 -0.0216654,-0.0216654l0 -0.14922c0,-0.0119646 0.00969685,-0.0216654 0.0216654,-0.0216654 0.0119685,0 0.0216654,0.00970079 0.0216654,0.0216654l0 0.14922c0,0.0119685 -0.00969685,0.0216654 -0.0216654,0.0216654z"/>
  <path class="fil1" d="M1.94545 0.722354c-0.0119646,0 -0.0216654,-0.00969685 -0.0216654,-0.0216654l0 -0.149217c0,-0.0119685 0.00970079,-0.0216693 0.0216654,-0.0216693 0.0119685,0 0.0216693,0.00970079 0.0216693,0.0216693l0 0.14922c0,0.0119646 -0.00970472,0.0216614 -0.0216693,0.0216614z"/>
 </g>
</svg>
